<mxfile host="app.diagrams.net" modified="2024-07-13T21:39:43.142Z" agent="Mozilla/5.0 (Windows NT 10.0; Win64; x64) AppleWebKit/537.36 (KHTML, like Gecko) Chrome/126.0.0.0 Safari/537.36" etag="tU--6e81cWbDVBTMoLqT" version="24.6.5" type="device">
  <diagram name="Page-1" id="ZhQ4XyjFz-Q-k2d-4-wh">
    <mxGraphModel dx="1099" dy="1038" grid="1" gridSize="10" guides="1" tooltips="1" connect="1" arrows="1" fold="1" page="1" pageScale="1" pageWidth="850" pageHeight="1100" math="0" shadow="0">
      <root>
        <mxCell id="0" />
        <mxCell id="1" parent="0" />
        <mxCell id="Fw8AXvKBSuE9-e5RtdJN-1" value="gcc" style="text;html=1;align=center;verticalAlign=middle;whiteSpace=wrap;rounded=0;fontSize=18;" vertex="1" parent="1">
          <mxGeometry x="120" y="230" width="60" height="30" as="geometry" />
        </mxCell>
        <mxCell id="Fw8AXvKBSuE9-e5RtdJN-2" value="g++" style="text;html=1;align=center;verticalAlign=middle;whiteSpace=wrap;rounded=0;fontSize=18;" vertex="1" parent="1">
          <mxGeometry x="530" y="230" width="60" height="30" as="geometry" />
        </mxCell>
        <mxCell id="Fw8AXvKBSuE9-e5RtdJN-3" value="&lt;div style=&quot;font-size: 14px;&quot;&gt;math.h&lt;/div&gt;&lt;div style=&quot;font-size: 14px;&quot;&gt;---------------------------------&lt;/div&gt;&lt;div style=&quot;font-size: 14px;&quot;&gt;&lt;font style=&quot;font-size: 14px;&quot;&gt;#ifdef __cplusplus compiler&lt;/font&gt;&lt;/div&gt;&lt;div style=&quot;font-size: 14px;&quot;&gt;&lt;font style=&quot;font-size: 14px;&quot;&gt;extern &quot;C&quot; {&lt;/font&gt;&lt;/div&gt;&lt;div style=&quot;font-size: 14px;&quot;&gt;&lt;font style=&quot;font-size: 14px;&quot;&gt;#endif&lt;/font&gt;&lt;/div&gt;&lt;div style=&quot;font-size: 14px;&quot;&gt;&lt;span style=&quot;white-space: normal; font-size: 14px;&quot;&gt;&lt;font style=&quot;font-size: 14px;&quot;&gt;&lt;span style=&quot;white-space: pre; font-size: 14px;&quot;&gt;&#x9;&lt;/span&gt;sin(double x);&lt;/font&gt;&lt;/span&gt;&lt;/div&gt;&lt;div style=&quot;font-size: 14px;&quot;&gt;&lt;font style=&quot;font-size: 14px;&quot;&gt;#ifdef __cplusplus&lt;/font&gt;&lt;/div&gt;&lt;div style=&quot;font-size: 14px;&quot;&gt;&lt;font style=&quot;font-size: 14px;&quot;&gt;}&lt;/font&gt;&lt;/div&gt;&lt;div style=&quot;font-size: 14px;&quot;&gt;&lt;font style=&quot;font-size: 14px;&quot;&gt;#endif&lt;span style=&quot;white-space: pre; font-size: 14px;&quot;&gt;&#x9;&lt;/span&gt;&lt;/font&gt;&lt;/div&gt;" style="rounded=0;whiteSpace=wrap;html=1;align=left;fontSize=14;" vertex="1" parent="1">
          <mxGeometry x="260" y="300" width="200" height="160" as="geometry" />
        </mxCell>
        <mxCell id="Fw8AXvKBSuE9-e5RtdJN-4" value="math.so&lt;div style=&quot;font-size: 14px;&quot;&gt;--------------------&lt;/div&gt;&lt;div style=&quot;font-size: 14px;&quot;&gt;sin(double x)&lt;/div&gt;" style="ellipse;whiteSpace=wrap;html=1;fontSize=14;" vertex="1" parent="1">
          <mxGeometry x="300" y="470" width="120" height="80" as="geometry" />
        </mxCell>
        <mxCell id="Fw8AXvKBSuE9-e5RtdJN-5" value="" style="endArrow=classic;html=1;rounded=0;entryX=0.25;entryY=1;entryDx=0;entryDy=0;" edge="1" parent="1" target="Fw8AXvKBSuE9-e5RtdJN-2">
          <mxGeometry width="50" height="50" relative="1" as="geometry">
            <mxPoint x="460" y="390" as="sourcePoint" />
            <mxPoint x="510" y="340" as="targetPoint" />
          </mxGeometry>
        </mxCell>
        <mxCell id="Fw8AXvKBSuE9-e5RtdJN-6" value="&lt;b&gt;cpp.exe&lt;/b&gt;&lt;div style=&quot;font-size: 14px;&quot;&gt;--------------------------&lt;br style=&quot;font-size: 14px;&quot;&gt;&lt;div style=&quot;font-size: 14px;&quot;&gt;g++ see below:&lt;/div&gt;&lt;div style=&quot;font-size: 14px;&quot;&gt;extern &quot;C&quot;{&lt;/div&gt;&lt;div style=&quot;font-size: 14px;&quot;&gt;&lt;span style=&quot;white-space: pre; font-size: 14px;&quot;&gt;&#x9;&lt;/span&gt;sin(double x)&lt;/div&gt;&lt;div style=&quot;font-size: 14px;&quot;&gt;}&lt;/div&gt;&lt;/div&gt;&lt;div style=&quot;font-size: 14px;&quot;&gt;so, it will not perform name mangling, it can link with sin in math.so properly&lt;/div&gt;" style="rounded=1;whiteSpace=wrap;html=1;align=left;fontSize=14;" vertex="1" parent="1">
          <mxGeometry x="510" y="350" width="190" height="170" as="geometry" />
        </mxCell>
        <mxCell id="Fw8AXvKBSuE9-e5RtdJN-8" value="&lt;b&gt;c.exe&lt;/b&gt;&lt;div style=&quot;font-size: 14px;&quot;&gt;--------------------------&lt;br style=&quot;font-size: 14px;&quot;&gt;&lt;div style=&quot;font-size: 14px;&quot;&gt;gc see below:&lt;/div&gt;&lt;div style=&quot;font-size: 14px;&quot;&gt;&lt;span style=&quot;background-color: initial; font-size: 14px;&quot;&gt;sin(double x)&lt;/span&gt;&lt;br style=&quot;font-size: 14px;&quot;&gt;&lt;/div&gt;&lt;div style=&quot;font-size: 14px;&quot;&gt;&lt;br style=&quot;font-size: 14px;&quot;&gt;&lt;/div&gt;&lt;/div&gt;&lt;div style=&quot;font-size: 14px;&quot;&gt;so, it can link with sin in math.so properly&lt;/div&gt;" style="rounded=1;whiteSpace=wrap;html=1;align=left;fontSize=14;" vertex="1" parent="1">
          <mxGeometry x="40" y="360" width="180" height="150" as="geometry" />
        </mxCell>
        <mxCell id="Fw8AXvKBSuE9-e5RtdJN-9" value="" style="endArrow=classic;html=1;rounded=0;entryX=0.883;entryY=1.033;entryDx=0;entryDy=0;entryPerimeter=0;exitX=0;exitY=0.5;exitDx=0;exitDy=0;" edge="1" parent="1" source="Fw8AXvKBSuE9-e5RtdJN-3" target="Fw8AXvKBSuE9-e5RtdJN-1">
          <mxGeometry width="50" height="50" relative="1" as="geometry">
            <mxPoint x="470" y="400" as="sourcePoint" />
            <mxPoint x="555" y="270" as="targetPoint" />
          </mxGeometry>
        </mxCell>
        <mxCell id="Fw8AXvKBSuE9-e5RtdJN-10" value="" style="shape=flexArrow;endArrow=classic;html=1;rounded=0;exitX=0.5;exitY=1;exitDx=0;exitDy=0;entryX=0.574;entryY=0;entryDx=0;entryDy=0;entryPerimeter=0;" edge="1" parent="1" source="Fw8AXvKBSuE9-e5RtdJN-2" target="Fw8AXvKBSuE9-e5RtdJN-6">
          <mxGeometry width="50" height="50" relative="1" as="geometry">
            <mxPoint x="540" y="550" as="sourcePoint" />
            <mxPoint x="590" y="500" as="targetPoint" />
          </mxGeometry>
        </mxCell>
        <mxCell id="Fw8AXvKBSuE9-e5RtdJN-11" value="include math.h&lt;div style=&quot;font-size: 14px;&quot;&gt;link math.so&lt;/div&gt;" style="edgeLabel;html=1;align=center;verticalAlign=middle;resizable=0;points=[];fontSize=14;" vertex="1" connectable="0" parent="Fw8AXvKBSuE9-e5RtdJN-10">
          <mxGeometry x="-0.0586" y="-4" relative="1" as="geometry">
            <mxPoint as="offset" />
          </mxGeometry>
        </mxCell>
        <mxCell id="Fw8AXvKBSuE9-e5RtdJN-12" value="" style="shape=flexArrow;endArrow=classic;html=1;rounded=0;exitX=0.5;exitY=1;exitDx=0;exitDy=0;entryX=0.35;entryY=0.02;entryDx=0;entryDy=0;entryPerimeter=0;" edge="1" parent="1" target="Fw8AXvKBSuE9-e5RtdJN-8">
          <mxGeometry width="50" height="50" relative="1" as="geometry">
            <mxPoint x="130" y="260" as="sourcePoint" />
            <mxPoint x="189" y="350" as="targetPoint" />
          </mxGeometry>
        </mxCell>
        <mxCell id="Fw8AXvKBSuE9-e5RtdJN-13" value="include math.h&lt;div style=&quot;font-size: 14px;&quot;&gt;link math.so&lt;/div&gt;" style="edgeLabel;html=1;align=center;verticalAlign=middle;resizable=0;points=[];fontSize=14;" vertex="1" connectable="0" parent="Fw8AXvKBSuE9-e5RtdJN-12">
          <mxGeometry x="-0.0586" y="-4" relative="1" as="geometry">
            <mxPoint as="offset" />
          </mxGeometry>
        </mxCell>
        <mxCell id="Fw8AXvKBSuE9-e5RtdJN-14" value="" style="endArrow=none;dashed=1;html=1;dashPattern=1 3;strokeWidth=2;rounded=0;exitX=1;exitY=0.5;exitDx=0;exitDy=0;entryX=-0.021;entryY=0.847;entryDx=0;entryDy=0;entryPerimeter=0;" edge="1" parent="1" source="Fw8AXvKBSuE9-e5RtdJN-4" target="Fw8AXvKBSuE9-e5RtdJN-6">
          <mxGeometry width="50" height="50" relative="1" as="geometry">
            <mxPoint x="470" y="530" as="sourcePoint" />
            <mxPoint x="520" y="480" as="targetPoint" />
          </mxGeometry>
        </mxCell>
        <mxCell id="Fw8AXvKBSuE9-e5RtdJN-15" value="link" style="edgeLabel;html=1;align=center;verticalAlign=middle;resizable=0;points=[];fontSize=14;" vertex="1" connectable="0" parent="Fw8AXvKBSuE9-e5RtdJN-14">
          <mxGeometry x="0.1488" y="-3" relative="1" as="geometry">
            <mxPoint as="offset" />
          </mxGeometry>
        </mxCell>
        <mxCell id="Fw8AXvKBSuE9-e5RtdJN-17" value="" style="endArrow=none;dashed=1;html=1;dashPattern=1 3;strokeWidth=2;rounded=0;entryX=0;entryY=0.5;entryDx=0;entryDy=0;" edge="1" parent="1" target="Fw8AXvKBSuE9-e5RtdJN-4">
          <mxGeometry width="50" height="50" relative="1" as="geometry">
            <mxPoint x="220" y="496" as="sourcePoint" />
            <mxPoint x="300" y="480" as="targetPoint" />
          </mxGeometry>
        </mxCell>
        <mxCell id="Fw8AXvKBSuE9-e5RtdJN-18" value="link" style="edgeLabel;html=1;align=center;verticalAlign=middle;resizable=0;points=[];fontSize=14;" vertex="1" connectable="0" parent="Fw8AXvKBSuE9-e5RtdJN-17">
          <mxGeometry x="0.1488" y="-3" relative="1" as="geometry">
            <mxPoint as="offset" />
          </mxGeometry>
        </mxCell>
      </root>
    </mxGraphModel>
  </diagram>
</mxfile>
